
<svg xmlns:xlink="http://www.w3.org/1999/xlink" xmlns="http://www.w3.org/2000/svg" viewBox="0 0 200 163.51568031311035" preserveAspectRatio="xMidYMid meet" class="css-18yrpox" id="bhaaahee" width="200"  height="163.51568031311035" ><defs id="SvgjsDefs2883"></defs><g id="SvgjsG2884" featurekey="symbolContainer" transform="matrix(1,0,0,1,30,0)" fill="#9839F1">    <rect width="140" height="46" fill="#9839F1"></rect></g><g id="SvgjsG2885" featurekey="symbolFeature-0" transform="matrix(1.492537313432836,0,0,1.492537313432836,25.37313432835821,-43.2089552238806)" fill="#000000"><title xmlns="http://www.w3.org/2000/svg">P</title><path xmlns="http://www.w3.org/2000/svg" d="M45,45H30a2.5,2.5,0,0,0,0,5H45a2.5,2.5,0,0,0,0-5Z"></path><path xmlns="http://www.w3.org/2000/svg" d="M70,45H55a2.5,2.5,0,0,0,0,5H70a2.5,2.5,0,0,0,0-5Z"></path><circle xmlns="http://www.w3.org/2000/svg" cx="20" cy="42.5" r="3.5"></circle><circle xmlns="http://www.w3.org/2000/svg" cx="80" cy="42.5" r="3.5"></circle></g><g id="SvgjsG2886" featurekey="nameFeature-0" transform="matrix(1.1291184585437997,0,0,1.1291184585437997,-0.0000012660945058676738,61.87104550750891)" fill="#8B01FD"></g></svg>