
<svg xmlns:xlink="http://www.w3.org/1999/xlink" xmlns="http://www.w3.org/2000/svg" viewBox="0 0 200 163.51568031311035" preserveAspectRatio="xMidYMid meet" class="css-18yrpox" id="bhaaahee" width="200"  height="163.51568031311035" ><defs id="SvgjsDefs2883"></defs><g id="SvgjsG2884" featurekey="symbolContainer" transform="matrix(1,0,0,1,30,0)" fill="#9839F1">    <rect width="140" height="46" fill="#9839F1"></rect></g><g id="SvgjsG2885" featurekey="symbolFeature-0" transform="matrix(1.492537313432836,0,0,1.492537313432836,25.37313432835821,-43.2089552238806)" fill="#000000"><title xmlns="http://www.w3.org/2000/svg">P</title><path xmlns="http://www.w3.org/2000/svg" d="M45,45H30a2.5,2.5,0,0,0,0,5H45a2.5,2.5,0,0,0,0-5Z"></path><path xmlns="http://www.w3.org/2000/svg" d="M70,45H55a2.5,2.5,0,0,0,0,5H70a2.5,2.5,0,0,0,0-5Z"></path><circle xmlns="http://www.w3.org/2000/svg" cx="20" cy="42.5" r="3.5"></circle><circle xmlns="http://www.w3.org/2000/svg" cx="80" cy="42.5" r="3.5"></circle></g><g id="SvgjsG2886" featurekey="nameFeature-0" transform="matrix(1.1291184585437997,0,0,1.1291184585437997,-0.0000012660945058676738,61.87104550750891)" fill="#8B01FD"><path d="M20.12 18.08 c0.04 0.12 0.04 0.24 0.04 0.36 c-0.04 0.84 -0.12 1.68 -0.28 2.64 c-0.08 0.72 -0.24 1.44 -0.48 2.2 c-0.08 0.24 -0.16 0.48 -0.28 0.76 c-1.6 3.16 -6.88 7.28 -10.24 7 c-0.56 0.04 -1.08 0 -1.48 -0.04 c0.2 3.16 0.32 5.68 0.36 7.16 c0.08 2.4 -1.12 3.68 -2.44 3.6 s-2.72 -1.32 -3.24 -3.88 c-0.6 -3.04 -1.2 -9.72 -1.76 -17.6 c-0.04 -0.96 -0.12 -1.96 -0.16 -3 c-0.04 -0.52 -0.08 -1 -0.12 -1.52 c-0.04 -1.56 -0.04 -2.04 -0.04 -2.56 s0.04 -1 0.12 -1.48 c0.08 -0.44 0.24 -0.88 0.44 -1.24 c0.36 -0.76 1.12 -1.48 1.88 -1.8 c0.08 -0.08 0.2 -0.08 0.68 -0.16 l0.72 -0.12 c1.64 -0.28 1.92 -0.28 2.16 -0.28 c0.6 0 1.32 -0.08 1.92 0.08 c1.24 0.16 2.52 0.36 3.8 0.76 c1.24 0.4 2.48 1 3.64 1.72 c1.12 0.76 2.2 1.64 3.08 2.84 c0.96 1.32 1.64 2.72 1.68 4.56 z M13.88 22 c1.04 -2.28 0.44 -4.68 -1.84 -6.24 c-1.36 -0.88 -3 -1.2 -4.72 -1.36 c-0.12 -0.04 -0.24 0 -0.36 0 l-0.16 0 l-0.04 0 l0 0 l-0.12 0 c-0.08 0.04 -0.16 0.04 -0.24 0.04 c-0.16 0.08 -0.08 0.24 -0.08 0.44 l0.04 0.08 c0.2 4.12 0.52 8.2 0.84 12.48 c0.24 -0.16 0.52 -0.32 0.84 -0.48 c2.2 -1.16 4.88 -2.4 5.84 -4.96 z M24 7.479999999999997 c1.88 -1 4.2 1.16 4.36 2.96 c0.16 1.12 0.16 3.04 0.24 5.48 s0.12 5.36 0.24 8.44 c0.08 3.12 0.2 6.36 0.32 9.44 c0.04 1.12 0.04 2.04 1.28 1.64 c1.32 -0.12 2.64 -0.2 3.6 0.04 c0.96 0.16 1.64 0.6 1.96 1.08 c0.64 1 0.08 2.28 -1.4 3 c-2.48 1.2 -5.68 2 -8.16 0.8 c-2.4 -1.24 -3.08 -4.04 -3.28 -6.44 c-0.2 -1.88 -0.36 -3.8 -0.48 -5.8 c-0.24 -3.92 -0.4 -7.88 -0.36 -11.24 c0.04 -2.24 -0.28 -8.16 1.68 -9.4 z M57.400000000000006 28.36 c1.08 4.68 0.68 7.16 -0.2 8.04 c-1.2 1.36 -2.8 -0.88 -3.28 -2 c-0.48 -1.08 -1.16 -3.08 -1.96 -5.68 c-2.44 1.44 -5.04 2.64 -7.68 3.92 c-0.76 2.92 -1.36 5.24 -1.68 6.56 c-1.04 4.36 -5.68 2.44 -5.4 -1.76 c0.52 -6.72 3.4 -16.52 6.08 -23.56 c0.84 -2.12 2.2 -5 4.84 -5.36 c3.56 0 4.92 3.88 5.84 6.8 c1.48 4.16 2.44 8.56 3.44 13.04 z M46.440000000000005 24.6 c1.28 -0.52 2.64 -1 3.8 -1.36 c0.08 -1.68 -1.68 -5.08 -2.16 -4.4 c-1.12 1.6 -0.84 3.84 -1.64 5.76 z M75.04 8.719999999999999 c0.92 -0.2 1.6 0 2.12 0.36 c1.72 1.52 0.56 4.36 -1.16 5.24 c-1.04 0.56 -2.84 1.32 -4.6 2.6 c-0.84 0.64 -1.68 1.44 -2.4 2.44 c-2.52 4.12 -6.24 12.68 1.32 13.56 c1.72 0.16 4.36 0.24 5.4 1.8 c0.8 1.4 -0.56 2.6 -1.76 2.96 c-5.04 1.56 -11.64 -0.08 -13.68 -5.32 c-0.96 -2.64 -0.68 -5.4 -0.2 -7.6 c0.44 -2.24 1.12 -4.56 2.24 -6.72 c2.8 -5 7.28 -8.12 12.72 -9.32 z M86.52000000000001 15 c-0.32 0.32 -0.72 4.08 -0.8 5 l0 0.08 l0.24 0 c2.76 -0.04 5.72 0.12 7.8 0.36 c2.4 0.24 3.08 4.04 1.2 4.92 c-1.04 0.48 -4.36 0.76 -7.68 0.96 c-0.52 0.04 -1.08 0.08 -1.6 0.08 c0.04 2.48 -0.08 6.32 0.48 8.84 l0 0.04 l0 0 c0.68 0.08 1.56 0 2.4 -0.04 c1.2 0 3.32 -0.04 4.2 1.12 c0.72 1 0.04 2.32 -1.76 3.12 c-1.4 0.6 -2.88 1.04 -4.48 1.16 c-1.2 0.08 -2.56 -0.08 -3.64 -0.8 c-1.8 -1.12 -2.48 -3.4 -2.76 -5.52 c-0.2 -2.48 -0.48 -4.92 -0.64 -7.64 c-0.44 -0.2 -0.72 -1.28 -0.8 -2.44 c-0.08 -1.12 0.16 -2.32 0.68 -2.92 c0.04 -1.52 0.12 -3.04 0.32 -4.56 c0.12 -2.08 0.84 -4.72 2.48 -6.32 c0.72 -0.68 1.56 -1.2 2.48 -1.48 c2.16 -0.8 4.48 -0.4 6.76 -0.04 c1.48 0.28 2.48 0.44 3.12 0.48 c1.88 0.24 2.76 3.04 1.52 4.48 s-3.52 1.2 -5.48 1 c-1.12 -0.08 -2.4 -0.2 -3.36 -0.12 c-0.2 0.04 -0.44 0.08 -0.56 0.16 c-0.08 0.04 -0.08 0.04 -0.12 0.08 z M118.72000000000001 25.84 c0.72 6.24 1.28 12.56 1.36 14.72 c0.04 1.24 -1.16 1.88 -2.48 1.88 s-2.72 -0.6 -3.2 -1.92 c-0.68 -1.8 -1.24 -6.32 -1.68 -11.36 c-0.08 -1.08 -0.16 -2.2 -0.24 -3.28 c-1.48 0.2 -3.4 0.32 -5.36 0.44 c-0.6 0.04 -1.24 0.08 -1.84 0.12 c0.56 6.08 0.92 12.12 0.96 14.2 c0 1.24 -1.2 1.88 -2.52 1.84 s-2.72 -0.68 -3.16 -1.96 c-0.64 -1.88 -1.08 -6.4 -1.4 -11.4 c-0.08 -0.96 -0.12 -1.88 -0.16 -2.84 c-0.28 -0.44 -0.4 -1.24 -0.48 -2.04 c-0.04 -0.76 0.04 -1.52 0.24 -2.16 c-0.08 -2.72 -0.16 -5.28 -0.24 -7.36 c-0.04 -2.72 0.92 -4.08 2 -4.48 c1.04 -0.44 2.28 0.12 2.72 1.44 c0.44 1.24 0.96 4.52 1.4 8.44 c0.36 0 0.76 -0.04 1.16 -0.04 c2.12 -0.04 4.4 0.08 6.28 0.2 c-0.12 -2 -0.2 -3.88 -0.28 -5.48 c-0.12 -2.72 0.8 -4.08 1.88 -4.52 c1.04 -0.44 2.28 0.08 2.76 1.36 c0.68 1.8 1.56 7.96 2.28 14.2 z  M137.68 24.8 c0.56 6.32 0.96 12.72 1 14.88 c0 1.24 -1.2 1.88 -2.52 1.84 s-2.72 -0.68 -3.16 -2 c-0.08 -0.16 -0.12 -0.4 -0.2 -0.64 c-0.52 0.24 -1.32 0.52 -2.44 0.84 c-0.6 0.16 -1.32 0.36 -2.2 0.44 c-0.8 0.08 -2.2 0 -3.36 -0.6 c-1.16 -0.56 -2.12 -1.76 -2.6 -3.08 c-0.44 -1.2 -0.6 -2.32 -0.68 -3.36 c-0.2 -1.84 -0.36 -3.8 -0.48 -5.76 c-0.24 -3.96 -0.4 -7.92 -0.36 -11.28 s0.24 -6.16 0.52 -7.64 c0.08 -0.4 0.2 -0.76 0.4 -1.04 c0.2 -0.32 0.48 -0.56 0.76 -0.72 c0.56 -0.28 1.2 -0.28 1.84 -0.08 c0.6 0.2 1.2 0.64 1.64 1.16 c0.48 0.48 0.84 1.16 0.88 1.92 c0.16 1.12 0.16 3 0.24 5.44 s0.12 5.36 0.24 8.44 c0.08 3.12 0.2 6.4 0.32 9.48 c0 0.6 0.08 1.12 0.16 1.48 c0.08 0.2 0.04 0.12 0.04 0.12 l0 0 c0 0.04 0 0.04 0.04 0.04 c0.32 0.04 0.68 0 1.04 -0.04 c1.2 -0.12 2.4 -0.16 3.32 0 c-0.2 -1.96 -0.36 -4.24 -0.52 -6.64 c-0.36 -5.08 -0.56 -10.68 -0.64 -14.52 c-0.04 -2.72 0.92 -4.12 2 -4.56 c1.04 -0.4 2.28 0.2 2.72 1.48 c0.64 1.84 1.4 8.08 2 14.4 z M146.60000000000002 37.04 c0.04 3.2 -1.16 4.88 -2.44 4.8 c-1.32 -0.08 -2.76 -1.84 -3.24 -5.4 c-0.2 -1.28 -0.36 -3.08 -0.52 -5.24 c-0.08 -1.08 -0.16 -2.24 -0.2 -3.52 c-0.04 -0.48 -0.24 -4.68 -0.24 -5.32 c-0.04 -2.6 -0.08 -5.48 0 -8.16 c0.08 -1.52 0.2 -3.08 0.96 -4.24 c0.44 -0.6 0.88 -1.08 1.52 -1.4 c1.88 -0.76 3.8 0.92 4.4 2.36 l6.32 12.36 l0 0 l0.04 0 l0 0 l0 0 l0 0 c0.16 -2.88 0.24 -5.56 0.36 -7.6 c0.32 -7.2 1.36 -10.8 2.44 -11.76 s2.28 0.76 2.6 4.28 c0.36 2.76 0.44 12.8 0.16 18.16 c-0.04 1.32 -0.12 2.72 -0.24 4.08 c-0.08 1.36 -0.24 2.72 -0.52 3.68 c-0.24 0.8 -1.36 3.32 -2.36 3 c-2.52 -0.64 -3.72 -3.04 -4.84 -5.28 c-0.48 -0.84 -0.92 -1.64 -1.4 -2.48 c-0.76 -1.44 -2.4 -3.96 -3.2 -5.36 c0.16 2.68 0.2 5.72 0.28 7.84 c0.04 2.2 0.08 3.96 0.12 5.2 z M177.12 9.440000000000001 c0.08 1.12 -0.36 2.24 -1.08 2.6 c-0.84 0.4 -3.24 0.64 -5.92 0.8 c0.44 3 0.88 7.2 1.24 11.48 c0.6 6.6 1 13.24 1 15.52 c0.04 1.28 -1.2 1.96 -2.48 1.92 c-1.32 -0.04 -2.76 -0.72 -3.2 -2.08 c-0.6 -1.96 -1.04 -6.72 -1.4 -12.04 c-0.28 -5 -0.48 -10.48 -0.6 -14.48 c-0.32 0.04 -0.64 0.04 -0.96 0.04 c-1.36 0.08 -2.44 0.16 -2.92 0.16 c-0.56 0 -0.88 -1.16 -1 -2.48 c-0.08 -1.32 0.2 -2.76 0.96 -3.2 c1.08 -0.6 3.6 -0.92 6.32 -0.96 c2.76 -0.04 5.76 0.16 7.84 0.36 c1.44 0.16 2.12 1.24 2.2 2.36 z" fill="#8B01FD"></path></g><g id="SvgjsG2887" featurekey="sloganFeature-0" transform="matrix(1,0,0,1,18.828099966049194,119.12110137939453)" fill="#F7F7F7"></g></svg>